<svg id="Layer_1" data-name="Layer 1" xmlns="http://www.w3.org/2000/svg" viewBox="0 0 1080 1080"><title>ncf_logogram</title><path d="M540,0C241.77,0,0,241.77,0,540s241.77,540,540,540,540-241.77,540-540S838.23,0,540,0Zm0,1004.61c-31.48,0-57-31.08-57-70.72s25.52-66.5,57-66.5,57,26.86,57,66.5S571.48,1004.61,540,1004.61ZM795.66,460.7c-10.16,47.8-46.48,78.49-111,93.82-49.64,11.78-59.15,41.62-60.93,53.9-2.76,19,5.41,38.1,19.89,46.42,4.55,2.61,10.1,4,16.53,5.7,26.35,6.79,25.38,10.69,24,16.08-7.18,28.84-49.65,48.26-81,60.36A18,18,0,0,0,597,766.53c2,2,10,11.85,9.68,20.15-.09,2.29-.84,5.87-6.22,10.42C587.26,808.24,563.8,839,558,831.44c-18-23.44,0-367.87,0-367.87a18,18,0,0,0-36,0S540,814,522,831.4c-6.43,6.21-29.25-23.17-42.42-34.32-5.34-4.51-6.1-8.05-6.21-10.32-.38-8,7.11-17.6,9.68-20.24A18,18,0,0,0,476.81,737c-31.32-12.09-73.78-31.51-81-60.36-1.34-5.39-2.31-9.29,24-16.08,6.43-1.65,12-3.08,16.53-5.7,14.47-8.31,22.65-27.39,19.89-46.41-1.78-12.29-11.29-42.13-60.93-53.91-64.55-15.33-100.87-46-111-93.82-2.72-12.77-4.28-30.06,3.7-39.92,6.71-8.29,19-10,28.21-10a82.83,82.83,0,0,1,16.11,1.66,87.17,87.17,0,0,0,16.8,1.52c24.46,0,53.9-8.14,63.21-31,7.7-18.91-.56-40.37-24.56-63.8l-.45-.42c-42.17-38.44-50.48-64-50-78.64.33-10.73,5.57-20,16-28.47,9-7.26,19.87-8.62,33.22-4.58a111.56,111.56,0,0,1,13.35,5.52c9.53,4.4,19.39,9,30.12,9a32.58,32.58,0,0,0,25.61-12c13-15.45,4.18-34.36-3.6-51-5.4-11.58-12.12-26-9.2-34.15,2.5-7,18.51-7.54,23.36-7.54A104.48,104.48,0,0,1,485,118.58a18,18,0,0,0,20.57-11.15C510.18,95.47,524.64,70,540,67c15.36,3,29.81,28.46,34.42,40.39A18,18,0,0,0,595,118.58a103.3,103.3,0,0,1,18.78-1.79c4.85,0,20.87.55,23.37,7.54,2.91,8.15-3.8,22.56-9.2,34.14-7.78,16.69-16.61,35.61-3.6,51a32.56,32.56,0,0,0,25.62,12c10.72,0,20.58-4.55,30.11-9A111.66,111.66,0,0,1,693.44,207c13.34-4,24.21-2.67,33.22,4.58,10.46,8.43,15.7,17.74,16,28.47.45,14.66-7.87,40.2-50,78.64l-.45.42c-24,23.43-32.27,44.89-24.56,63.8,9.3,22.84,38.75,31,63.21,31a87.1,87.1,0,0,0,16.79-1.52,82.9,82.9,0,0,1,16.11-1.66c9.17,0,21.5,1.74,28.21,10C799.94,430.64,798.38,447.93,795.66,460.7Z" style="fill:#df4828"/></svg>