<svg id="Layer_1" data-name="Layer 1" xmlns="http://www.w3.org/2000/svg" viewBox="0 0 5164.66 1080"><title>nfc_logo</title><path d="M540,0C241.77,0,0,241.77,0,540s241.77,540,540,540,540-241.77,540-540S838.23,0,540,0Zm0,1004.61c-31.48,0-57-31.08-57-70.72s25.52-66.5,57-66.5,57,26.86,57,66.5S571.48,1004.61,540,1004.61ZM795.66,460.7c-10.16,47.8-46.48,78.49-111,93.82-49.64,11.78-59.15,41.62-60.93,53.9-2.76,19,5.41,38.1,19.89,46.42,4.55,2.61,10.1,4,16.53,5.7,26.35,6.79,25.38,10.69,24,16.08-7.18,28.84-49.65,48.26-81,60.36A18,18,0,0,0,597,766.53c2,2,10,11.85,9.68,20.15-.09,2.29-.84,5.87-6.22,10.42C587.26,808.24,563.8,839,558,831.44c-18-23.44,0-367.87,0-367.87a18,18,0,0,0-36,0S540,814,522,831.4c-6.43,6.21-29.25-23.17-42.42-34.32-5.34-4.51-6.1-8.05-6.21-10.32-.38-8,7.11-17.6,9.68-20.24A18,18,0,0,0,476.81,737c-31.32-12.09-73.78-31.51-81-60.36-1.34-5.39-2.31-9.29,24-16.08,6.43-1.65,12-3.08,16.53-5.7,14.47-8.31,22.65-27.39,19.89-46.41-1.78-12.29-11.29-42.13-60.93-53.91-64.55-15.33-100.87-46-111-93.82-2.72-12.77-4.28-30.06,3.7-39.92,6.71-8.29,19-10,28.21-10a82.83,82.83,0,0,1,16.11,1.66,87.17,87.17,0,0,0,16.8,1.52c24.46,0,53.9-8.14,63.21-31,7.7-18.91-.56-40.37-24.56-63.8l-.45-.42c-42.17-38.44-50.48-64-50-78.64.33-10.73,5.57-20,16-28.47,9-7.26,19.87-8.62,33.22-4.58a111.56,111.56,0,0,1,13.35,5.52c9.53,4.4,19.39,9,30.12,9a32.58,32.58,0,0,0,25.61-12c13-15.45,4.18-34.36-3.6-51-5.4-11.58-12.12-26-9.2-34.15,2.5-7,18.51-7.54,23.36-7.54A104.48,104.48,0,0,1,485,118.58a18,18,0,0,0,20.57-11.15C510.18,95.47,524.64,70,540,67c15.36,3,29.81,28.46,34.42,40.39A18,18,0,0,0,595,118.58a103.3,103.3,0,0,1,18.78-1.79c4.85,0,20.87.55,23.37,7.54,2.91,8.15-3.8,22.56-9.2,34.14-7.78,16.69-16.61,35.61-3.6,51a32.56,32.56,0,0,0,25.62,12c10.72,0,20.58-4.55,30.11-9A111.66,111.66,0,0,1,693.44,207c13.34-4,24.21-2.67,33.22,4.58,10.46,8.43,15.7,17.74,16,28.47.45,14.66-7.87,40.2-50,78.64l-.45.42c-24,23.43-32.27,44.89-24.56,63.8,9.3,22.84,38.75,31,63.21,31a87.1,87.1,0,0,0,16.79-1.52,82.9,82.9,0,0,1,16.11-1.66c9.17,0,21.5,1.74,28.21,10C799.94,430.64,798.38,447.93,795.66,460.7Z" style="fill:#df4828"/><path d="M1474.22,457q32,33.57,32.05,91v202H1427v-179q0-33.86-19.35-53.52t-52.62-19.66q-39.32.61-62,26.61T1270.4,591V750.08h-78.62V426.51h78.62V487q33.25-62.29,116.12-63.5Q1442.16,423.48,1474.22,457Z" style="fill:#393637"/><path d="M1824.69,444.65a148.87,148.87,0,0,1,59.88,57.76Q1906,539.6,1906,588q0,49-21.47,86.49a148.2,148.2,0,0,1-59.87,58.06q-38.41,20.57-88.6,20.56-50.8,0-89.51-20.56a147.62,147.62,0,0,1-60.18-58.06Q1564.93,637,1564.93,588q0-48.38,21.47-85.58t60.18-57.76q38.7-20.55,89.51-20.56Q1786.28,424.09,1824.69,444.65Zm-155.13,73.79q-25.4,27.22-25.4,70.76t25.4,70.76q25.4,27.22,66.53,27.22,39.92,0,65.32-27.22t25.4-70.76q0-43.55-25.4-70.76t-65.32-27.22Q1695,491.22,1669.56,518.44Z" style="fill:#393637"/><path d="M2097.45,440.72q28.12-16.63,65.62-17.24v76.21q-50.21-3-80.14,23.28T2053,594v156h-78.62V426.51H2053V488.8Q2069.33,457.36,2097.45,440.72Z" style="fill:#393637"/><path d="M2356,493q-39.32,0-63.81,26.61t-24.49,68.95q0,43.55,24.49,70.16T2356,685.36q58.06,0,87.09-38.1l49,40.52q-21.77,31.45-57.46,48.38t-82.86,16.93q-47.78,0-85-20.56A144.69,144.69,0,0,1,2209,674.78q-20.57-37.2-20.56-85.58,0-49,20.87-86.49a146.29,146.29,0,0,1,58.06-58.06q37.2-20.55,85.58-20.56,44.14,0,78.93,15.42t56.55,43.85l-47.78,45.36Q2408,493,2356,493Z" style="fill:#393637"/><path d="M2738.84,750.08V710.76q-16.94,21.18-43.55,32.05t-61.08,10.89q-33.88,0-59.57-13t-39.61-36q-13.92-23-13.91-51.41,0-45.36,32.05-71.06t90.72-26.31h94.35v-8.47q0-28.42-18.75-44.15t-54.43-15.72q-46,0-96.16,30.24l-28.43-54.43q38.1-21.16,69.25-30.54t72.88-9.37q62.89,0,97.68,30.24t35.38,84.67l.6,211.68ZM2711,677.2q24.18-16,27.22-39.61v-29h-81.65q-31.45,0-46.27,9.37t-14.82,30.54q0,20.57,15.42,32.66t42,12.1Q2686.83,693.22,2711,677.2Z" style="fill:#393637"/><path d="M2907.58,301.31h78.62V750.08h-78.62Z" style="fill:#393637"/><path d="M3192.13,375.7q-11.79,10.29-11.79,30.84v33.26h81v57.46h-81V750.08h-78.62V497.27h-42.34V439.81h42.34V409q0-35.68,15.73-60.78a100.11,100.11,0,0,1,42-37.8,129.72,129.72,0,0,1,57.15-12.7q30.24,0,59.27,13.91L3262,375.1q-24.2-9.67-39.92-9.68Q3203.93,365.42,3192.13,375.7Zm186.58-75q12.7,13.31,12.7,33.87,0,20-12.7,33.26t-32.05,13.31q-19.36,0-32.05-13.31t-12.7-33.26q0-20.55,12.7-33.87t32.05-13.31Q3366,287.4,3378.71,300.71ZM3308,426.51h78.62V750.08H3308Z" style="fill:#393637"/><path d="M3607,440.72q28.12-16.63,65.62-17.24v76.21q-50.21-3-80.14,23.28T3562.57,594v156h-78.62V426.51h78.62V488.8Q3578.9,457.36,3607,440.72Z" style="fill:#393637"/><path d="M3979,468.24q39,44.15,39,124,0,15.73-.61,23.59h-238.9q7.85,34.47,32.36,54.13T3871,689.6a123,123,0,0,0,47.48-9.37,116,116,0,0,0,39.61-26.91l42.34,44.15a163.72,163.72,0,0,1-59,41.13q-34.79,14.52-77.11,14.52-49.6,0-87.39-20.56a143.67,143.67,0,0,1-58.36-57.76Q3698,637.58,3698,589.2t20.87-85.88A147.74,147.74,0,0,1,3777.27,445q37.49-20.87,85.28-20.87Q3940,424.09,3979,468.24Zm-33,95q-1.22-35.68-23.59-56.85t-59.27-21.17q-34.47,0-57.76,20.87t-28.73,57.15Z" style="fill:#393637"/><path d="M4228.75,492.43q-25.1-7.85-46.27-7.86-20,0-31.75,7T4138.94,513q0,15.12,14.82,23.28t46.87,17.24q33.86,10.29,55.64,20.26a104.82,104.82,0,0,1,37.8,29.64q16,19.66,16,51.71,0,47.17-36.29,72.58t-91.33,25.4a231.69,231.69,0,0,1-73.18-11.79q-35.69-11.79-60.48-33.57l27.22-55q21.77,18.75,52,29.33t57.46,10.58q21.77,0,34.78-7.56t13-22.68q0-16.92-15.12-25.4t-49-18.75q-32.66-9.67-53.22-19.05a96.17,96.17,0,0,1-35.68-28.43q-15.12-19.05-15.12-49.9,0-47.77,34.78-72.88t87.39-25.1a225,225,0,0,1,63.2,9.07q31.14,9.07,55.34,25.4l-28.43,56.85A232.89,232.89,0,0,0,4228.75,492.43Z" style="fill:#393637"/><path d="M4425.92,680.52q11.79,12.11,11.79,30.84,0,19.36-11.79,31.75T4396,755.52a38.38,38.38,0,0,1-29.33-12.7q-11.79-12.7-11.79-31.45t11.79-30.84q11.79-12.09,29.33-12.1Q4414.12,668.43,4425.92,680.52Z" style="fill:#393637"/><path d="M4618.24,375.7q-11.79,10.29-11.79,30.84v33.26h81v57.46h-81V750.08h-78.62V497.27h-42.34V439.81h42.34V409q0-35.68,15.73-60.78a100.11,100.11,0,0,1,42-37.8,129.72,129.72,0,0,1,57.15-12.7q30.24,0,59.27,13.91l-13.91,63.5q-24.2-9.67-39.92-9.68Q4630,365.42,4618.24,375.7Z" style="fill:#393637"/><path d="M4847.45,850.77Q4819.33,871,4780.62,871q-23.59,0-42.64-7T4700.18,842L4734,782.13a100.35,100.35,0,0,0,21.17,12.4,54.15,54.15,0,0,0,20.56,3.93q32,0,47.17-32.66l9.68-21.17L4699,426.51h81.65l91.93,235.27,84.07-235.27h79.23L4890.69,790.6Q4875.57,830.51,4847.45,850.77Z" style="fill:#393637"/><path d="M5152,300.71q12.7,13.31,12.7,33.87,0,20-12.7,33.26t-32.05,13.31q-19.36,0-32.05-13.31t-12.7-33.26q0-20.55,12.7-33.87t32.05-13.31Q5139.26,287.4,5152,300.71Zm-70.76,125.8h78.62V750.08H5081.2Z" style="fill:#393637"/></svg>